<svg xmlns="http://www.w3.org/2000/svg" width="20" height="20" viewBox="0 0 20 20">
    <path d="M10.086 5.031c.832 0 1.875-.562 2.496-1.312.563-.68.973-1.63.973-2.578 0-.13-.012-.258-.035-.364-.926.035-2.04.621-2.707 1.407-.528.597-1.008 1.535-1.008 2.496 0 .14.023.28.035.328.058.012.152.023.246.023zm-2.93 14.18c1.137 0 1.64-.762 3.059-.762 1.441 0 1.758.738 3.023.738 1.242 0 2.075-1.148 2.86-2.273.879-1.289 1.242-2.555 1.265-2.613-.082-.024-2.46-.996-2.46-3.727 0-2.367 1.874-3.433 1.98-3.515-1.242-1.782-3.13-1.829-3.645-1.829-1.394 0-2.531.844-3.246.844-.773 0-1.793-.797-3-.797-2.297 0-4.629 1.899-4.629 5.485 0 2.226.867 4.582 1.934 6.105.914 1.29 1.71 2.344 2.86 2.344z"/>
</svg>
